<svg width="128" height="128" viewBox="0 0 128 128" fill="none" xmlns="http://www.w3.org/2000/svg">
<path d="M88 64C88 54.56 82.56 46.4533 74.6667 42.5067V54.2933L87.7333 67.36C87.8933 66.2933 88 65.1733 88 64ZM101.333 64C101.333 69.0133 100.267 73.7067 98.4533 78.08L106.507 86.1333C110.027 79.52 112 72 112 64C112 41.1733 96.0533 22.08 74.6667 17.2267V28.2133C90.08 32.8 101.333 47.0933 101.333 64ZM22.7733 16L16 22.7733L41.2267 48H16V80H37.3333L64 106.667V70.7733L86.6667 93.44C83.0933 96.2133 79.0933 98.4 74.6667 99.7333V110.72C82.0267 109.067 88.6933 105.653 94.3467 101.067L105.227 112L112 105.227L64 57.2267L22.7733 16ZM64 21.3333L52.8533 32.48L64 43.6267V21.3333Z" fill="black"/>
</svg>
